<svg width="701" height="700" xmlns="http://www.w3.org/2000/svg" xmlns:xlink="http://www.w3.org/1999/xlink" xml:space="preserve" overflow="hidden"><defs><clipPath id="clip0"><rect x="420" y="887" width="701" height="700"/></clipPath></defs><g clip-path="url(#clip0)" transform="translate(-420 -887)"><path d="M726.728 1359.36C729.708 1359.36 732 1357.07 732 1354.09L732 1323.6C732 1296.78 710.222 1275 683.401 1275L468.6 1275C441.778 1275 420 1296.78 420 1323.6L420 1538.4C420 1565.22 441.778 1587 468.6 1587L683.401 1587C710.222 1587 732 1565.22 732 1538.4L732 1507.68C732 1504.7 729.708 1502.41 726.728 1502.41L687.527 1502.41C686.152 1502.41 685.235 1503.33 685.235 1504.7L685.235 1512.95C685.235 1527.86 673.085 1540.01 658.184 1540.01L494.046 1540.01C479.145 1540.01 466.995 1527.86 466.995 1512.95L466.995 1348.82C466.995 1333.92 479.145 1321.77 494.046 1321.77L658.184 1321.77C673.085 1321.77 685.235 1333.92 685.235 1348.82L685.235 1354.09C685.235 1357.07 687.527 1359.36 690.507 1359.36L726.728 1359.36 726.728 1359.36Z" fill="#3B7ABE" fill-rule="evenodd"/><path d="M546.751 1394C542.419 1394 539 1397.42 539 1401.75L539 1461.25C539 1465.58 542.419 1469 546.751 1469L606.25 1469C610.581 1469 614 1465.58 614 1461.25L614 1401.75C614 1397.42 610.581 1394 606.25 1394L546.751 1394 546.751 1394Z" fill="#3B7ABE" fill-rule="evenodd"/><path d="M1036.41 1199 1072.4 1199C1099.22 1199 1121 1177.22 1121 1150.4L1121 935.599C1121 908.778 1099.22 887 1072.4 887L857.599 887C830.778 887 809 908.778 809 935.599L809 1150.4C809 1177.22 830.778 1199 857.599 1199L893.591 1199 893.591 1152.23 883.045 1152.23C868.145 1152.23 855.995 1140.08 855.995 1125.18L855.995 961.045C855.995 946.145 868.145 933.995 883.045 933.995L1047.18 933.995C1062.08 933.995 1074.23 946.145 1074.23 961.045L1074.23 1125.18C1074.23 1140.08 1062.08 1152.23 1047.18 1152.23L1036.64 1152.23 1036.64 1199 1036.41 1199Z" fill="#62BBE6" fill-rule="evenodd"/><path d="M1003 1010.24C1003 1007.28 1000.69 1005 997.687 1005L932.313 1005C929.31 1005 927 1007.28 927 1010.24L927 1074.76C927 1077.72 929.31 1080 932.313 1080L997.687 1080C1000.69 1080 1003 1077.72 1003 1074.76L1003 1010.24 1003 1010.24Z" fill="#62BBE6" fill-rule="evenodd"/><path d="M1121 1538.4 1121 1323.6C1121 1296.78 1099.22 1275 1072.4 1275L1036.41 1275 1036.41 1321.77 1046.95 1321.77C1061.86 1321.77 1074.01 1333.92 1074.01 1348.82L1074.01 1512.95C1074.01 1527.86 1061.86 1540.01 1046.95 1540.01L882.816 1540.01C867.915 1540.01 855.765 1527.86 855.765 1512.95L855.765 1502.41 809 1502.41 809 1538.4C809 1565.22 830.778 1587 857.599 1587L1072.4 1587C1099.22 1586.77 1121 1565.22 1121 1538.4L1121 1538.4ZM893.591 1275 857.599 1275C830.778 1275 809 1296.78 809 1323.6L809 1359.59 855.765 1359.59 855.765 1349.05C855.765 1334.14 867.915 1321.99 882.816 1321.99L893.361 1321.99 893.361 1275 893.591 1275Z" fill="#2CA691" fill-rule="evenodd"/><path d="M934.854 1394C930.465 1394 927 1397.42 927 1401.75L927 1461.25C927 1465.58 930.465 1469 934.854 1469L995.146 1469C999.535 1469 1003 1465.58 1003 1461.25L1003 1401.75C1003 1397.42 999.535 1394 995.146 1394L934.854 1394 934.854 1394Z" fill="#2CA691" fill-rule="evenodd"/><path d="M741.751 1394C737.419 1394 734 1397.42 734 1401.75L734 1461.25C734 1465.58 737.419 1469 741.751 1469L801.249 1469C805.581 1469 809 1465.58 809 1461.25L809 1401.75C809 1397.42 805.581 1394 801.249 1394L741.751 1394 741.751 1394Z" fill="#FAB712" fill-rule="evenodd"/><path d="M934.854 1199C930.465 1199 927 1202.47 927 1206.85L927 1267.15C927 1271.53 930.465 1275 934.854 1275L995.146 1275C999.535 1275 1003 1271.53 1003 1267.15L1003 1206.85C1003 1202.47 999.535 1199 995.146 1199L934.854 1199 934.854 1199Z" fill="#FAB712" fill-rule="evenodd"/></g></svg>